HIERARCHY
ROOT Hips
{
  OFFSET 49.8446 84.2251 -2.41518
  CHANNELS 6 Xposition Yposition Zposition Zrotation Xrotation Yrotation
  JOINT spine
  {
    OFFSET 0 6.24479 0.359107
    CHANNELS 3 Zrotation Xrotation Yrotation
    JOINT spine1
    {
      OFFSET 0 9.06941 0
      CHANNELS 3 Zrotation Xrotation Yrotation
      JOINT spine2
      {
        OFFSET 0 8.69014 0
        CHANNELS 3 Zrotation Xrotation Yrotation
        JOINT Neck
        {
          OFFSET 0 22.3112 1.06372
          CHANNELS 3 Zrotation Xrotation Yrotation
          JOINT Head
          {
            OFFSET 0 6.74081 0
            CHANNELS 3 Zrotation Xrotation Yrotation
            End Site
            {
              OFFSET 0 16.3165 -5.38097
            }
          }
        }
        JOINT RightShoulder
        {
          OFFSET -3.65916 9.38468 -0.509514
          CHANNELS 3 Zrotation Xrotation Yrotation
          JOINT RightArm
          {
            OFFSET 0 12.3089 0
            CHANNELS 3 Zrotation Xrotation Yrotation
            JOINT RightArmRoll
            {
              OFFSET 0 6.21375 0
              CHANNELS 3 Zrotation Xrotation Yrotation
              JOINT RightForeArm
              {
                OFFSET 0 18.0985 0
                CHANNELS 3 Zrotation Xrotation Yrotation
                JOINT RightForeArmRoll
                {
                  OFFSET 0 6.97279 0
                  CHANNELS 3 Zrotation Xrotation Yrotation
                  JOINT RightHand
                  {
                    OFFSET 0 13.9929 0
                    CHANNELS 3 Zrotation Xrotation Yrotation
                    End Site
                    {
                      OFFSET 0 0 0
                    }
                  }
                }
              }
            }
          }
        }
        JOINT LeftShoulder
        {
          OFFSET 3.65916 9.38468 -0.509514
          CHANNELS 3 Zrotation Xrotation Yrotation
          JOINT LeftArm
          {
            OFFSET 0 12.3089 0
            CHANNELS 3 Zrotation Xrotation Yrotation
            JOINT LeftArmRoll
            {
              OFFSET 0 6.21375 0
              CHANNELS 3 Zrotation Xrotation Yrotation
              JOINT LeftForeArm
              {
                OFFSET 0 18.0985 0
                CHANNELS 3 Zrotation Xrotation Yrotation
                JOINT LeftForeArmRoll
                {
                  OFFSET 0 6.97279 0
                  CHANNELS 3 Zrotation Xrotation Yrotation
                  JOINT LeftHand
                  {
                    OFFSET 0 13.9929 0
                    CHANNELS 3 Zrotation Xrotation Yrotation
                    End Site
                    {
                      OFFSET 0 0 0
                    }
                  }
                }
              }
            }
          }
        }
      }
    }
  }
  JOINT RightUpLeg
  {
    OFFSET -5.53515 -1.015 -0.851454
    CHANNELS 3 Zrotation Xrotation Yrotation
    JOINT RightUpLegRoll
    {
      OFFSET 0 16.4075 0
      CHANNELS 3 Zrotation Xrotation Yrotation
      JOINT RightLeg
      {
        OFFSET 0 -20.3181 0
        CHANNELS 3 Zrotation Xrotation Yrotation
        JOINT RightLegRoll
        {
          OFFSET 0 20.3846 0
          CHANNELS 3 Zrotation Xrotation Yrotation
          JOINT RightFoot
          {
            OFFSET 0 16.9668 0
            CHANNELS 3 Zrotation Xrotation Yrotation
            JOINT RightToeBase
            {
              OFFSET 0 14.1834 0
              CHANNELS 3 Zrotation Xrotation Yrotation
              End Site
              {
                OFFSET 0.0060118 6.86889 -0.791746
              }
            }
          }
        }
      }
    }
  }
  JOINT LeftUpLeg
  {
    OFFSET 5.53515 -1.015 -0.851454
    CHANNELS 3 Zrotation Xrotation Yrotation
    JOINT LeftUpLegRoll
    {
      OFFSET 0 16.4076 0
      CHANNELS 3 Zrotation Xrotation Yrotation
      JOINT LeftLeg
      {
        OFFSET 0 20.3181 0
        CHANNELS 3 Zrotation Xrotation Yrotation
        JOINT LeftLegRoll
        {
          OFFSET 0 20.5731 0
          CHANNELS 3 Zrotation Xrotation Yrotation
          JOINT LeftFoot
          {
            OFFSET 0 16.7783 0
            CHANNELS 3 Zrotation Xrotation Yrotation
            JOINT LeftToeBase
            {
              OFFSET 0 14.1834 0
              CHANNELS 3 Zrotation Xrotation Yrotation
              End Site
              {
                OFFSET -0.0269423 6.8689 -0.791746
              }
            }
          }
        }
      }
    }
  }
}
MOTION
Frames: 12
Frame Time: 0.00208333
52.024 92.4638 -6.32295 -0.193216 9.62726 1.02482 -0.433957 -3.42307 -0.118613 -0.871807 -2.84268 -0.207045 -0.868899 -1.19772 -0.192388 -4.07252 3.87609 -1.22171 2.50501 3.40964 -2.09446 30.1699 -13.7665 -10.1332 68.8134 34.1727 35.5724 -8.47192e-006 1.58281e-006 7.23385e-006 0.708244 27.4468 -1.19593 2.00765e-005 4.00593e-006 -3 8.02908 -4.95141 0.697663 -7.12216 -20.7587 23.601 -57.3924 54.9401 -50.6954 1.19741e-005 5.10108e-007 -1.00948e-005 10.6722 12.7525 -1.39088 1.15871e-005 3.97554e-007 3 -8.02975 -4.95146 -0.697674 167.568 12.9918 2.73231 180 7.01538e-015 178.884 -176.435 8.08851 178.9 -2.67812e-006 -4.96396e-006 -0.361814 -16.1988 64.8002 17.2365 8.13649 25.2327 -3.48775 -165.7 10.6538 -4.67341 4.54188e-006 -4.6773e-006 -1.1238 3.0197 -7.42174 1.02086 5.35018e-007 -4.00494e-006 0.214071 16.8074 65.7238 -17.8239 -8.1365 25.2327 3.48774 
52.0541 92.5982 -6.33913 -0.206276 9.65088 1.08757 -0.418652 -3.40842 -0.115406 -0.841113 -2.81342 -0.201613 -0.838293 -1.16845 -0.187474 -4.52403 3.41716 -1.21166 2.81585 3.71186 -2.16572 30.2725 -13.8519 -10.218 69.4967 34.1711 35.1123 -8.47192e-006 1.58281e-006 7.23385e-006 0.751133 26.9556 -1.20976 2.00765e-005 4.00593e-006 -3 8.02908 -4.95141 0.697663 -7.72767 -20.7614 23.4093 -57.8607 54.8374 -50.1972 1.19741e-005 5.10108e-007 -1.00948e-005 10.5717 12.6618 -1.34871 1.15871e-005 3.97554e-007 3 -8.02975 -4.95146 -0.697674 167.724 13.0385 2.68138 180 7.01539e-015 178.891 -176.508 8.14663 178.905 -2.67812e-006 -4.96396e-006 -0.352074 -16.2201 64.8362 17.2599 8.13649 25.2327 -3.48775 -165.835 10.681 -4.62067 4.54188e-006 -4.6773e-006 -1.11918 2.95794 -7.36998 1.01183 5.35018e-007 -4.00494e-006 0.211475 16.808 65.7236 -17.8236 -8.1365 25.2327 3.48774 
52.0412 92.7342 -6.35057 -0.222456 9.67403 1.14823 -0.402458 -3.39317 -0.112442 -0.808662 -2.78296 -0.196731 -0.805924 -1.13799 -0.183137 -4.97338 2.94462 -1.20449 3.12252 4.02348 -2.23771 30.385 -13.9357 -10.3004 70.1581 34.1704 34.6622 -8.47192e-006 1.58281e-006 7.23385e-006 0.795968 26.4601 -1.22345 2.00765e-005 4.00593e-006 -3 8.02908 -4.95141 0.697663 -8.34272 -20.7636 23.2163 -58.3061 54.7278 -49.7151 1.19741e-005 5.10108e-007 -1.00948e-005 10.4691 12.5649 -1.30554 1.15871e-005 3.97554e-007 3 -8.02975 -4.95146 -0.697674 167.882 13.0905 2.63261 180 7.01541e-015 178.898 -176.588 8.2216 178.909 -2.67812e-006 -4.96396e-006 -0.342158 -16.2411 64.87 17.2821 8.13649 25.2327 -3.48775 -165.964 10.7024 -4.57614 4.54188e-006 -4.6773e-006 -1.11561 2.89 -7.31663 1.00167 5.35018e-007 -4.00494e-006 0.209772 16.8022 65.7133 -17.8164 -8.1365 25.2327 3.48774 
51.9808 92.8723 -6.25857 -0.241545 9.69745 1.20695 -0.385545 -3.37747 -0.109646 -0.774786 -2.75159 -0.192234 -0.772125 -1.10662 -0.179211 -5.41732 2.45897 -1.20034 3.42263 4.34408 -2.31006 30.5091 -14.018 -10.3802 70.7966 34.1699 34.2231 -8.47192e-006 1.58281e-006 7.23385e-006 0.842286 25.9628 -1.23691 2.00765e-005 4.00593e-006 -3 8.02908 -4.95141 0.697663 -8.96558 -20.765 23.0221 -58.731 54.6116 -49.2471 1.19741e-005 5.10108e-007 -1.00948e-005 10.364 12.4633 -1.26161 1.15871e-005 3.97554e-007 3 -8.02975 -4.95146 -0.697674 168.044 13.1483 2.58534 180 7.01543e-015 178.905 -176.674 8.31103 178.914 -2.67812e-006 -4.96396e-006 -0.332119 -16.2615 64.9018 17.303 8.13649 25.2327 -3.48775 -166.087 10.721 -4.53906 4.54188e-006 -4.6773e-006 -1.11287 2.81666 -7.26492 0.990641 5.35018e-007 -4.00494e-006 0.208712 16.7916 65.6953 -17.8041 -8.1365 25.2327 3.48774 
51.9506 92.9977 -6.3112 -0.263332 9.7219 1.26386 -0.368084 -3.36145 -0.106941 -0.739818 -2.71959 -0.187964 -0.737231 -1.07461 -0.175528 -5.85265 1.96074 -1.19938 3.71381 4.6732 -2.38238 30.6464 -14.0985 -10.4569 71.4109 34.1694 33.7963 -8.47192e-006 1.58281e-006 7.23385e-006 0.889631 25.4656 -1.25008 2.00765e-005 4.00593e-006 -3 8.02908 -4.95141 0.697663 -9.59449 -20.7652 22.8268 -59.138 54.4889 -48.7909 1.19741e-005 5.10108e-007 -1.00948e-005 10.2559 12.3582 -1.21712 1.15871e-005 3.97554e-007 3 -8.02975 -4.95146 -0.697674 168.209 13.2121 2.53892 180 7.01545e-015 178.912 -176.765 8.41262 178.918 -2.67812e-006 -4.96396e-006 -0.322011 -16.2814 64.9315 17.3227 8.13649 25.2327 -3.48775 -166.204 10.7399 -4.50864 4.54188e-006 -4.6773e-006 -1.11073 2.73872 -7.21814 0.979013 5.35018e-007 -4.00494e-006 0.208049 16.7775 65.672 -17.7882 -8.1365 25.2327 3.48774 
51.9532 93.0972 -6.32808 -0.28761 9.74812 1.31911 -0.350243 -3.34526 -0.104255 -0.704089 -2.68724 -0.183757 -0.701576 -1.04225 -0.171922 -6.27614 1.45046 -1.20177 3.99363 5.0104 -2.45431 30.7989 -14.1771 -10.5304 71.9998 34.1682 33.3832 -8.47192e-006 1.58281e-006 7.23385e-006 0.937551 24.9709 -1.26287 2.00765e-005 4.00593e-006 -3 8.02908 -4.95141 0.697663 -10.2277 -20.7638 22.6305 -59.5297 54.3596 -48.3444 1.19741e-005 5.10108e-007 -1.00948e-005 10.1444 12.2509 -1.17233 1.15871e-005 3.97554e-007 3 -8.02975 -4.95146 -0.697674 168.377 13.2821 2.49268 180 7.01546e-015 178.92 -176.859 8.52398 178.923 -2.67812e-006 -4.96396e-006 -0.311889 -16.3006 64.9594 17.3412 8.13649 25.2327 -3.48775 -166.316 10.7621 -4.4841 4.54188e-006 -4.6773e-006 -1.10897 2.65694 -7.17952 0.967043 5.35018e-007 -4.00494e-006 0.207534 16.7616 65.6458 -17.7704 -8.1365 25.2327 3.48774 
51.9179 93.2202 -6.32134 -0.314175 9.77686 1.37285 -0.332192 -3.32903 -0.10151 -0.667933 -2.65482 -0.179453 -0.665494 -1.00982 -0.168226 -6.68459 0.928651 -1.20766 4.2597 5.35525 -2.52547 30.9681 -14.2539 -10.6004 72.5622 34.1659 32.985 -8.47192e-006 1.58281e-006 7.23385e-006 0.985599 24.4808 -1.27519 2.00765e-005 4.00593e-006 -3 8.02908 -4.95141 0.697663 -10.8635 -20.7604 22.4333 -59.9085 54.2237 -47.9055 1.19741e-005 5.10108e-007 -1.00948e-005 10.0289 12.1428 -1.12744 1.15871e-005 3.97554e-007 3 -8.02975 -4.95146 -0.697674 168.548 13.3587 2.44596 180 7.01548e-015 178.928 -176.957 8.6428 178.928 -2.67812e-006 -4.96396e-006 -0.301807 -16.3191 64.9855 17.3586 8.13649 25.2327 -3.48775 -166.424 10.7907 -4.46466 4.54188e-006 -4.6773e-006 -1.10736 2.57211 -7.15234 0.954992 5.35018e-007 -4.00494e-006 0.206919 16.7453 65.6189 -17.7523 -8.1365 25.2327 3.48774 
51.9508 93.3065 -6.39945 -0.342826 9.80885 1.42523 -0.314099 -3.31291 -0.0986321 -0.631682 -2.62261 -0.174891 -0.62932 -0.977609 -0.164273 -7.07481 0.395832 -1.2172 4.50956 5.7073 -2.59549 31.1558 -14.3286 -10.6665 73.0967 34.1621 32.603 -8.47192e-006 1.58281e-006 7.23385e-006 1.03333 23.9976 -1.28698 2.00765e-005 4.00593e-006 -3 8.02908 -4.95141 0.697663 -11.5001 -20.7548 22.2352 -60.2769 54.0812 -47.472 1.19741e-005 5.10108e-007 -1.00948e-005 9.90903 12.0351 -1.08268 1.15871e-005 3.97554e-007 3 -8.02975 -4.95146 -0.697674 168.722 13.4422 2.39811 180 7.0155e-015 178.935 -177.056 8.76669 178.933 -2.67812e-006 -4.96396e-006 -0.291818 -16.3367 65.01 17.375 8.13649 25.2327 -3.48775 -166.527 10.8287 -4.44954 4.54188e-006 -4.6773e-006 -1.10569 2.485 -7.13986 0.943119 5.35018e-007 -4.00494e-006 0.205956 16.73 65.594 -17.7356 -8.1365 25.2327 3.48774 
51.9066 93.4187 -6.39267 -0.373365 9.84486 1.47639 -0.296136 -3.29704 -0.0955463 -0.59567 -2.59089 -0.16991 -0.593388 -0.945889 -0.159897 -7.44362 -0.147471 -1.23057 4.7408 6.06612 -2.66398 31.3637 -14.4011 -10.7285 73.602 34.1563 32.2385 -8.47192e-006 1.58281e-006 7.23385e-006 1.08032 23.5234 -1.29815 2.00765e-005 4.00593e-006 -3 8.02908 -4.95141 0.697663 -12.1357 -20.7465 22.0365 -60.6372 53.9319 -47.0418 1.19741e-005 5.10108e-007 -1.00948e-005 9.78425 11.9293 -1.03828 1.15871e-005 3.97554e-007 3 -8.02975 -4.95146 -0.697674 168.899 13.5327 2.34845 180 7.01552e-015 178.943 -177.157 8.89332 178.938 -2.67812e-006 -4.96396e-006 -0.281976 -16.3534 65.033 17.3904 8.13649 25.2327 -3.48775 -166.625 10.8791 -4.43795 4.54188e-006 -4.6773e-006 -1.10373 2.39638 -7.14533 0.931684 5.35018e-007 -4.00494e-006 0.204397 16.7172 65.5732 -17.7217 -8.1365 25.2327 3.48774 
51.8922 93.4946 -6.4189 -0.405595 9.88561 1.52648 -0.278471 -3.28156 -0.0921771 -0.560229 -2.55996 -0.164347 -0.558034 -0.914945 -0.15493 -7.78784 -0.700733 -1.24793 4.95094 6.43126 -2.73058 31.5936 -14.4715 -10.786 74.0771 34.148 31.8928 -8.47192e-006 1.58281e-006 7.23385e-006 1.12612 23.0604 -1.30862 2.00765e-005 4.00593e-006 -3 8.02908 -4.95141 0.697663 -12.7686 -20.7351 21.8372 -60.9919 53.7758 -46.6129 1.19741e-005 5.10108e-007 -1.00948e-005 9.65408 11.8266 -0.994448 1.15871e-005 3.97554e-007 3 -8.02975 -4.95146 -0.697674 169.078 13.6307 2.29634 180 7.01553e-015 178.951 -177.258 9.02034 178.944 -2.67812e-006 -4.96396e-006 -0.272336 -16.3691 65.0545 17.4049 8.13649 25.2327 -3.48774 -166.72 10.945 -4.42913 4.54188e-006 -4.6773e-006 -1.10125 2.30701 -7.17202 0.920948 5.35018e-007 -4.00494e-006 0.201994 16.7082 65.5591 -17.7123 -8.1365 25.2327 3.48774 
51.865 93.5937 -6.43018 -0.439324 9.93187 1.57565 -0.261274 -3.2666 -0.0884496 -0.525694 -2.53008 -0.158042 -0.523594 -0.885059 -0.149206 -8.10431 -1.26343 -1.26944 5.13753 6.80229 -2.7949 31.8473 -14.5395 -10.8389 74.5205 34.1369 31.5673 -8.47192e-006 1.58281e-006 7.23385e-006 1.17031 22.6109 -1.31831 2.00765e-005 4.00593e-006 -3 8.02908 -4.95141 0.697663 -13.3971 -20.7203 21.6374 -61.3432 53.6125 -46.1833 1.19741e-005 5.10108e-007 -1.00948e-005 9.51802 11.7284 -0.951415 1.15871e-005 3.97554e-007 3 -8.02975 -4.95146 -0.697674 169.259 13.7364 2.24109 180 7.01555e-015 178.959 -177.358 9.14542 178.95 -2.67812e-006 -4.96396e-006 -0.262951 -16.3838 65.0748 17.4185 8.13649 25.2327 -3.48774 -166.812 11.0293 -4.42229 4.54188e-006 -4.6773e-006 -1.09804 2.21766 -7.22319 0.911171 5.35018e-007 -4.00494e-006 0.198499 16.7046 65.5539 -17.709 -8.1365 25.2327 3.48774 
51.9061 93.6506 -6.54284 -0.47436 9.98437 1.62405 -0.244715 -3.25232 -0.0842885 -0.492399 -2.50153 -0.150834 -0.490403 -0.856512 -0.142557 -8.38987 -1.83503 -1.29526 5.29809 7.17878 -2.85656 32.1263 -14.6051 -10.8867 74.931 34.1224 31.2631 -8.47192e-006 1.58281e-006 7.23385e-006 1.21246 22.1769 -1.32714 2.00765e-005 4.00593e-006 -3 8.02908 -4.95141 0.697663 -14.0192 -20.7017 21.4372 -61.6935 53.4418 -45.7509 1.19741e-005 5.10108e-007 -1.00948e-005 9.37556 11.6359 -0.909396 1.15871e-005 3.97554e-007 3 -8.02975 -4.95146 -0.697674 169.443 13.85 2.18205 180 7.01557e-015 178.967 -177.457 9.26617 178.956 -2.67812e-006 -4.96396e-006 -0.253875 -16.3973 65.0939 17.4312 8.13649 25.2327 -3.48774 -166.901 11.1352 -4.41666 4.54188e-006 -4.6773e-006 -1.09387 2.1291 -7.30209 0.902613 5.35018e-007 -4.00494e-006 0.193663 16.7078 65.5602 -17.7133 -8.1365 25.2327 3.48774 
